<svg width="24" height="24" viewBox="0 0 24 24" fill="none" xmlns="http://www.w3.org/2000/svg">
<path d="M22.0999 12.2249C22.0999 11.5666 22.0416 10.9416 21.9416 10.3333H12.5249V14.0916H17.9166C17.6749 15.3249 16.9666 16.3666 15.9166 17.0749V19.5749H19.1332C21.0166 17.8333 22.0999 15.2666 22.0999 12.2249Z" fill="#4285F4"/>
<path d="M12.5251 22C15.2251 22 17.4834 21.1 19.1334 19.575L15.9168 17.075C15.0168 17.675 13.8751 18.0417 12.5251 18.0417C9.91677 18.0417 7.70843 16.2833 6.91677 13.9083H3.6001V16.4833C5.24176 19.75 8.61677 22 12.5251 22Z" fill="#34A853"/>
<path d="M6.91657 13.9083C6.70824 13.3083 6.5999 12.6666 6.5999 11.9999C6.5999 11.3333 6.71657 10.6916 6.91657 10.0916V7.5166H3.5999C2.91657 8.8666 2.5249 10.3833 2.5249 11.9999C2.5249 13.6166 2.91657 15.1333 3.5999 16.4833L6.91657 13.9083Z" fill="#FBBC05"/>
<path d="M12.5251 5.95833C14.0001 5.95833 15.3168 6.46667 16.3584 7.45834L19.2084 4.60833C17.4834 2.99167 15.2251 2 12.5251 2C8.61677 2 5.24176 4.25 3.6001 7.51667L6.91677 10.0917C7.70843 7.71667 9.91676 5.95833 12.5251 5.95833Z" fill="#EA4335"/>
</svg>
