<svg width="90" height="95" viewBox="0 0 90 95" fill="none" xmlns="http://www.w3.org/2000/svg">
<g clip-path="url(#clip0_26_17)">
<rect width="90" height="95" rx="45" fill="#D9D9D9"/>
<path d="M45 53.4375C58.9746 53.4375 70.3125 41.4697 70.3125 26.7188C70.3125 11.9678 58.9746 0 45 0C31.0254 0 19.6875 11.9678 19.6875 26.7188C19.6875 41.4697 31.0254 53.4375 45 53.4375ZM67.5 59.375H57.8145C53.9121 61.2676 49.5703 62.3438 45 62.3438C40.4297 62.3438 36.1055 61.2676 32.1855 59.375H22.5C10.0723 59.375 0 70.0068 0 83.125V86.0938C0 91.0107 3.7793 95 8.4375 95H81.5625C86.2207 95 90 91.0107 90 86.0938V83.125C90 70.0068 79.9277 59.375 67.5 59.375Z" fill="white"/>
</g>
<defs>
<clipPath id="clip0_26_17">
<rect width="90" height="95" rx="45" fill="white"/>
</clipPath>
</defs>
</svg>
